<?xml version="1.0" encoding="utf-8"?>
<!-- Generator: Adobe Illustrator 27.5.0, SVG Export Plug-In . SVG Version: 6.00 Build 0)  -->
<svg version="1.1" id="Layer_1" xmlns="http://www.w3.org/2000/svg" xmlns:xlink="http://www.w3.org/1999/xlink" x="0px" y="0px"
	 viewBox="0 0 507.5 455.9" style="enable-background:new 0 0 507.5 455.9;" xml:space="preserve">
<style type="text/css">
	.st0{fill:#CE636B;}
	.st1{fill:#94ACC4;}
</style>
<path class="st0" d="M263.1,199.8c-1.7,15.6-16.6,27.2-33.2,27.2c-21.2,0-38.5-16.3-38.5-36.5s17.3-36.3,38.5-36.3
	c18.7,0,37.9,16,27.6,31c-7.4,10.6-32.9,15.7-27.9-2.1c5.1-18.7-0.3-24.6-8.3-22.3c-8.4,2.4-11.4,17.7-6.1,34
	c8.3,25.3,39.2,21.4,43.6,4.4C259.6,195.5,263.5,196.8,263.1,199.8L263.1,199.8z"/>
<path class="st1" d="M316.4,215.6V228h-39.9v-74.2H289v61.8H316.4L316.4,215.6z"/>
<path class="st1" d="M212.4,297.9l-2.9,7.9h-12.4l27.3-70.6l27.4,70.6h-12.4l-3-7.9H212.4L212.4,297.9z M232.8,288l-8.3-23.8
	l-8.3,23.8H232.8z"/>
<path class="st1" d="M316.6,278.3c0,0.7-0.1,7.2-3.4,13.9c-4.7,9.4-13.6,14.6-25.1,14.6s-20.4-5.2-25.1-14.6
	c-3.3-6.7-3.4-13.2-3.4-13.9v-41.1h57L316.6,278.3L316.6,278.3z M305.3,278.2v-29.5H271v29.6c0,0,0.1,4.7,2.5,9.1
	c2.8,5.4,7.6,7.9,14.7,7.9s12-2.5,14.7-7.9C305.2,283,305.3,278.3,305.3,278.2L305.3,278.2z"/>
</svg>
